<?xml version="1.0" encoding="utf-8"?>
<!-- Generator: Adobe Illustrator 21.1.0, SVG Export Plug-In . SVG Version: 6.00 Build 0)  -->
<svg version="1.1" id="Calque_1" xmlns="http://www.w3.org/2000/svg" xmlns:xlink="http://www.w3.org/1999/xlink" x="0px" y="0px"
	 viewBox="0 0 198.7 326.7" style="enable-background:new 0 0 198.7 326.7;" xml:space="preserve">
<style type="text/css">
	.st0{fill:#AAAAAA;}
	.st1{fill:url(#SVGID_1_);}
	.st2{fill:url(#SVGID_2_);}
</style>
<path class="st0" d="M198.7,18.4c-0.1-0.1-0.2-0.1-0.3,0l-23.6,17.4l-1.1-35.6c0-0.1-0.1-0.2-0.2-0.2c-0.1,0-0.2,0.1-0.3,0.2
	l-14,48.7l-39,36l-20.8-5c0,0,0,0-0.1,0c0,0,0,0-0.1,0l-20.8,5l-39-36l-14-48.7c0-0.1-0.1-0.2-0.3-0.2c-0.1,0-0.2,0.1-0.2,0.2
	L24,35.8L0.4,18.3c-0.1-0.1-0.2-0.1-0.3,0C0,18.5,0,18.6,0,18.7l17.7,25.6L16,117c0,0,0,0.1,0,0.1l8,21.4l-6.2,25.4c0,0,0,0.1,0,0.1
	c0,0,0,0,0,0l6.2,18.7l-11.5,29.7c0,0.1,0,0.2,0,0.2c0,0.1,0.1,0.1,0.2,0.1c0,0,0,0,0,0l5-0.5l7.7,42.3c0,0.1,0.1,0.2,0.2,0.2
	c0,0,0,0,0.1,0c0.1,0,0.1,0,0.2-0.1l4-4l28.3,38.8c0,0.1,0.1,0.1,0.2,0.1c0,0,0,0,0,0c0.1,0,0.2,0,0.2-0.1l3.8-6.2L98.9,326l0,0.5
	c0,0.1,0.1,0.2,0.2,0.2c0,0,0.1,0,0.1,0c0.1,0,0.1,0,0.2-0.1l0.1-0.1l0.1,0.1c0,0.1,0.1,0.1,0.2,0.1c0,0,0.1,0,0.1,0
	c0.1,0,0.2-0.1,0.2-0.2l0-0.5l36.4-42.8l3.8,6.2c0,0.1,0.1,0.1,0.2,0.1c0,0,0,0,0,0c0.1,0,0.2,0,0.2-0.1l28.3-38.8l4,4
	c0,0,0.1,0.1,0.2,0.1c0,0,0,0,0.1,0c0.1,0,0.2-0.1,0.2-0.2l7.7-42.3l5,0.5c0,0,0,0,0,0c0.1,0,0.2,0,0.2-0.1c0.1-0.1,0.1-0.2,0-0.2
	l-11.5-29.7l6.2-18.7c0,0,0,0,0,0c0,0,0-0.1,0-0.1l-6.2-25.4l8-21.4c0,0,0-0.1,0-0.1L181,44.3l17.7-25.6
	C198.8,18.6,198.8,18.5,198.7,18.4z M174.4,182.5l-20.8-3.7c-0.1,0-0.1,0-0.2,0l-31.2,17.1l-4.1-23.4l18.3-4.9c0,0,0.1,0,0.1-0.1
	l9.1-9.7l34.8,6.4L174.4,182.5z M45.2,178.7C45.2,178.7,45.2,178.7,45.2,178.7l-20.8,3.7l-6.1-18.3l34.8-6.4l9.1,9.7
	c0,0,0.1,0.1,0.1,0.1l18.3,4.9l-4.1,23.4l-31.2-17.1C45.3,178.7,45.3,178.7,45.2,178.7z M126.9,97.4l9.1,16.1l-10,43.2l-10.9-24.3
	l5.2-46.5L126.9,97.4z M114.8,132.6l11.1,24.9l-8.2,14.4l-18.1-8.1v-40.6l9.6,6L114.8,132.6z M119.1,201.9l-6.5,14l-11-3.1l-1.9-0.5
	v-47.9l17.9,8l4.2,23.8L119.1,201.9z M81.2,172.4l11.5-5.1l6.4-2.9v47.9l-4.6,1.3l-8.4,2.4l-6.6-14l-2.7-5.7l1.5-8.5L81.2,172.4z
	 M76.8,197.1l9,19.2v8.5l-14,0.5l1.1-5.9L76.8,197.1z M86.3,224.9v-8.4l12.8-3.6v9.3l-7.3-4l2.4,8.2l4.9,4v5.2l-6.2-5.1L86.3,224.9z
	 M99.1,229.6l-4.4-3.6l-2-6.8l6.5,3.6L99.1,229.6z M99.6,235.5v-5.2l4.9-4l2.4-8.2l-7.3,4v-9.3l4.7,1.3l8.1,2.3v8.4l-6.5,5.4
	L99.6,235.5z M99.6,229.6l0-6.9l6.5-3.6l-2,6.8L99.6,229.6z M127,225.2l-14-0.5v-8.5l9-19.2l2,11.3L127,225.2z M99.1,123.2v40.6
	l-18.1,8.1l-8.2-14.4L84,132.6l5.5-3.4L99.1,123.2z M72.5,157.7l8,14.1L62.6,167l-8.8-9.3H72.5z M74.6,231.6l-2.8-5.9l14.1-0.5
	l4.5,3.7l8.6,7.1v1.4c-1.1,0.2-7.1,0.1-10.8-0.1L85,239l0.2,0.5l3.2-1.5c1.7,0.1,9,0.3,10.8,0.1V254l-7.3-5.5l-14.4-10.9L74.6,231.6
	z M99.6,254V238c1.8,0.3,9.1,0,10.8-0.1l3.2,1.5l0.2-0.5l-3.2-1.5l-0.1,0c-3.7,0.1-9.7,0.3-10.8,0.1v-1.4l8.7-7.1l4.5-3.7l14.1,0.5
	l-4.2,8.9l-1.4,3l-19.6,14.8L99.6,254z M126.3,157.7H145l-8.8,9.3l-17.9,4.8L126.3,157.7z M174.1,138.5l-28.6,18.7h-19l10-43.3
	l10.9,7.1L174.1,138.5z M167.2,42.1l-4.3,9.8l-26.7,61l-15.7-27.8L167.2,42.1z M78.3,85.9l5.2,46.5l-10.9,24.3l-10-43.2l6.5-11.5
	L78.3,85.9z M62.3,113.9l2.3,10.1l7.7,33.2h-19l-6-3.9l-22.6-14.8l9.6-6.2L62.3,113.9z M24.4,138.9l28.2,18.5l-34.3,6.3L24.4,138.9z
	 M42.6,210l33.8-13.3l-5.2,28.8c0,0,0,0,0,0c0,0,0,0.1,0,0.1l5.5,11.7L28,222.9L42.6,210z M122,237.3l5.5-11.7c0,0,0-0.1,0-0.1
	c0,0,0,0,0,0l-5.2-28.8l33.8,13.3l14.6,12.9L122,237.3z M146.2,157.4l28.2-18.5l6.1,24.8L146.2,157.4z M159.9,48.2l13.3-46.3l1,34.3
	l-6.5,4.8c0,0,0,0,0,0L159.9,48.2z M114.7,132l-15.1-9.4V80.4l20.4,4.9L114.7,132z M99.1,122.6L84,132l-5.3-46.7l20.4-4.9V122.6z
	 M65.9,106.9l-3.4,6.1L34.3,48.4l-2.7-6.3l5.8,5.3l1.8,1.7l0,0l39,36L65.9,106.9z M24.5,36.2l1-34.3l13.3,46.3L31,41c0,0,0,0,0,0
	L24.5,36.2z M24.1,36.5C24.1,36.5,24.1,36.5,24.1,36.5l6.5,4.8l2.5,5.7l2,4.5l-17-7.5L1.3,19.6L24.1,36.5z M18.2,44.6l17.2,7.6
	l26.8,61.2l-16.6,10.8l-21.2,13.9l-7.9-21.2L18.2,44.6z M24.4,183l20.8-3.7l31,17l-33.7,13.3l-5.6,0.5l-23.8,2.2L24.4,183z
	 M25.9,254l-7.6-41.7l13.1-1.2l10.4-1l-14.4,12.7c-0.1,0.1-0.1,0.2-0.1,0.2c0,0.1,0.1,0.2,0.2,0.2l22.5,6.7l-20.1,20.2l0,0L25.9,254
	z M58.4,288.8l-28.2-38.5l20.1-20.2l26.7,7.9l8.6,6.5L58.4,288.8z M62.8,282.7l23.3-37.9l13,9.8l-0.2,70.6L62.8,282.7z M99.9,325.2
	l-0.2-70.6l13-9.8l23.3,37.9L99.9,325.2z M140.3,288.8L113,244.5l8.6-6.5l26.7-7.9l20.1,20.2l0,0L140.3,288.8z M180.5,212.2
	l-7.6,41.7l-3.9-3.9l0,0l-20.1-20.2l22.5-6.7c0.1,0,0.2-0.1,0.2-0.2c0-0.1,0-0.2-0.1-0.2L157,210.1l13.7,1.3L180.5,212.2z
	 M164.5,210.2l-8.2-0.8l-33.7-13.3l31-17l20.8,3.7l11.3,29.2L164.5,210.2z M174.4,138.1l-37.8-24.7l26.8-61.2l17.2-7.6l1.7,72.3
	L174.4,138.1z M180.6,44l-3.2,1.4l-13.8,6.1l4.5-10.2l29.3-21.7L180.6,44z"/>
<linearGradient id="SVGID_1_" gradientUnits="userSpaceOnUse" x1="53.7892" y1="164.7911" x2="80.4469" y2="164.7911">
	<stop  offset="0" style="stop-color:#212BB2"/>
	<stop  offset="0.4479" style="stop-color:#105ECA"/>
	<stop  offset="0.8066" style="stop-color:#0481DB"/>
	<stop  offset="1" style="stop-color:#008EE1"/>
</linearGradient>
<polygon class="st1" points="53.8,157.7 62.6,167 80.4,171.8 72.5,157.7 "/>
<linearGradient id="SVGID_2_" gradientUnits="userSpaceOnUse" x1="118.2941" y1="164.7903" x2="144.9984" y2="164.7903">
	<stop  offset="0" style="stop-color:#008EE1"/>
	<stop  offset="1" style="stop-color:#212BB2"/>
</linearGradient>
<polygon class="st2" points="145,157.7 136.2,167 118.3,171.8 126.3,157.7 "/>
</svg>
