<?xml version="1.0" encoding="utf-8"?>
<!-- Generator: Adobe Illustrator 21.1.0, SVG Export Plug-In . SVG Version: 6.00 Build 0)  -->
<svg version="1.1" id="Calque_1" xmlns="http://www.w3.org/2000/svg" xmlns:xlink="http://www.w3.org/1999/xlink" x="0px" y="0px"
	 viewBox="0 0 479.7 51.1" style="enable-background:new 0 0 479.7 51.1;" xml:space="preserve">
<style type="text/css">
	.st0{fill:#FFFFFF;}
</style>
<path class="st0" d="M0,51.1V0h2.4v48.8h31.4v2.3H0z"/>
<path class="st0" d="M30.3,0l18.9,29L68.1,0h2.8L50.4,31.5v19.6H48V31.4L27.6,0H30.3z"/>
<path class="st0" d="M81.4,4.8v46.4h-2.4V0h1.9l37.6,47.2V0.1h2.4v51h-2.4L81.4,4.8z"/>
<path class="st0" d="M131.5,0l18.9,24l18.9-24h2.9l-20.4,25.9l19.8,25.2h-2.9l-18.4-23.3L132,51.1h-3l19.8-25.2L128.5,0H131.5z"/>
<path class="st0" d="M201.9,32.8c4.5,0.2,8.4,3.1,8.4,8.8c0,6.4-4.5,9.1-11.2,9.1h-8.3V17h6.8c7,0,11,2.9,11,8.3
	C208.5,29.6,205.7,32.2,201.9,32.8L201.9,32.8z M191.4,32.5h8.6c4.6,0,7.7-3,7.7-7.2c0-5-3.5-7.7-10.1-7.7h-6.2V32.5z M209.6,41.6
	c0-5.4-3.9-8.4-9.3-8.4h-8.9V50h7.7C205.2,50,209.6,47.6,209.6,41.6z"/>
<path class="st0" d="M241.9,51.1c-7.3,0-10.1-4.5-10.1-10.7V17h0.7v23.4c0,5.9,2.6,10.1,9.4,10.1c6.8,0,9.3-4.3,9.3-10.1V17h0.7
	v23.5C251.9,46.6,249.1,51.1,241.9,51.1z"/>
<path class="st0" d="M292.2,19.8l-0.5,0.5c-2.2-2.1-4.6-3.2-8.3-3.2c-5,0-8.3,3-8.3,7c0,4.2,2.2,5.9,8.6,8c6.5,2,9.5,4.1,9.5,9.6
	c0,5.6-4.1,9.4-10.2,9.4c-4.5,0-7.4-1.6-9.9-4l0.5-0.5c2.4,2.3,5,3.8,9.4,3.8c5.6,0,9.5-3.5,9.5-8.7c0-5.1-2.7-7-9-9
	c-6.8-2.2-9.1-4.1-9.1-8.6c0-4.3,3.5-7.7,9-7.7C287.6,16.5,290,17.8,292.2,19.8z"/>
<path class="st0" d="M315.9,50.7V17h0.7v33.7H315.9z"/>
<path class="st0" d="M361,50.7l-18.6-32.9c0.1,1.5,0.1,3.5,0.1,7.3v25.6h-0.7V17h0.9l18.6,32.9c0-2-0.1-4.9-0.1-8V17h0.7v33.7H361z"
	/>
<path class="st0" d="M387.8,17.6v14.9h12.7v0.6h-12.7V50H403v0.7h-16V17h15.6l-0.1,0.7H387.8z"/>
<path class="st0" d="M439.8,19.8l-0.5,0.5c-2.2-2.1-4.6-3.2-8.3-3.2c-5,0-8.3,3-8.3,7c0,4.2,2.2,5.9,8.6,8c6.5,2,9.5,4.1,9.5,9.6
	c0,5.6-4.1,9.4-10.2,9.4c-4.5,0-7.4-1.6-9.9-4l0.5-0.5c2.4,2.3,5,3.8,9.4,3.8c5.6,0,9.5-3.5,9.5-8.7c0-5.1-2.7-7-9-9
	c-6.8-2.2-9.1-4.1-9.1-8.6c0-4.3,3.5-7.7,9-7.7C435.2,16.5,437.6,17.8,439.8,19.8z"/>
<path class="st0" d="M478.6,19.8l-0.5,0.5c-2.2-2.1-4.6-3.2-8.3-3.2c-5,0-8.3,3-8.3,7c0,4.2,2.2,5.9,8.6,8c6.5,2,9.5,4.1,9.5,9.6
	c0,5.6-4.1,9.4-10.2,9.4c-4.5,0-7.4-1.6-9.9-4l0.5-0.5c2.4,2.3,5,3.8,9.4,3.8c5.6,0,9.5-3.5,9.5-8.7c0-5.1-2.7-7-9-9
	c-6.8-2.2-9.1-4.1-9.1-8.6c0-4.3,3.5-7.7,9-7.7C474,16.5,476.4,17.8,478.6,19.8z"/>
</svg>
