<?xml version="1.0" encoding="utf-8"?>
<!-- Generator: Adobe Illustrator 21.1.0, SVG Export Plug-In . SVG Version: 6.00 Build 0)  -->
<svg version="1.1" id="Calque_1" xmlns="http://www.w3.org/2000/svg" xmlns:xlink="http://www.w3.org/1999/xlink" x="0px" y="0px"
	 viewBox="0 0 173.6 85.9" style="enable-background:new 0 0 173.6 85.9;" xml:space="preserve">
<style type="text/css">
	.st0{fill:#AAAAAA;}
	.st1{fill:#CACACA;}
	.st2{fill:url(#SVGID_1_);}
	.st3{fill:url(#SVGID_2_);}
</style>
<g>
	<path class="st0" d="M1.5,51.1V0h2.4v48.8h31.4v2.3H1.5z"/>
	<path class="st0" d="M31.8,0l18.9,29L69.6,0h2.8L51.9,31.5v19.6h-2.4V31.4L29,0H31.8z"/>
	<path class="st0" d="M82.8,4.8v46.4h-2.4V0h1.9l37.6,47.2V0.1h2.4v51h-2.4L82.8,4.8z"/>
	<path class="st0" d="M132.9,0l18.9,24l18.9-24h2.9l-20.4,25.9L173,51.1h-2.9l-18.4-23.3l-18.3,23.3h-3l19.8-25.2L130,0H132.9z"/>
	<path class="st0" d="M6.5,75.5c2.6,0.1,4.9,1.8,4.9,5.1c0,3.7-2.7,5.3-6.6,5.3H0V66.2h4c4.1,0,6.4,1.7,6.4,4.9
		C10.4,73.6,8.8,75.1,6.5,75.5L6.5,75.5z M0.4,75.3h5c2.7,0,4.5-1.8,4.5-4.2c0-2.9-2.1-4.5-5.9-4.5H0.4V75.3z M11.1,80.6
		c0-3.2-2.3-4.9-5.4-4.9H0.4v9.9h4.5C8.5,85.5,11.1,84.2,11.1,80.6z"/>
	<path class="st0" d="M30,86.2c-4.3,0-5.9-2.7-5.9-6.3V66.2h0.4v13.7c0,3.4,1.5,5.9,5.5,5.9c4,0,5.5-2.5,5.5-5.9V66.2h0.4v13.7
		C35.9,83.5,34.2,86.2,30,86.2z"/>
	<path class="st0" d="M59.5,67.8l-0.3,0.3c-1.3-1.2-2.7-1.9-4.9-1.9c-2.9,0-4.8,1.8-4.8,4.1c0,2.5,1.3,3.5,5.1,4.7
		c3.8,1.2,5.6,2.4,5.6,5.6c0,3.3-2.4,5.5-6,5.5c-2.6,0-4.3-0.9-5.8-2.3l0.3-0.3c1.4,1.3,3,2.2,5.5,2.2c3.3,0,5.5-2,5.5-5.1
		c0-3-1.6-4.1-5.3-5.3c-4-1.3-5.3-2.4-5.3-5c0-2.5,2.1-4.5,5.3-4.5C56.8,65.9,58.2,66.7,59.5,67.8z"/>
	<path class="st0" d="M73.4,85.9V66.2h0.4v19.7H73.4z"/>
	<path class="st0" d="M99.8,85.9L88.9,66.6c0,0.9,0,2,0,4.3v15h-0.4V66.2h0.5L100,85.5c0-1.2,0-2.8,0-4.7V66.2h0.4v19.7H99.8z"/>
	<path class="st0" d="M115.5,66.6v8.7h7.4v0.4h-7.4v9.9h8.9v0.4h-9.4V66.2h9.1l0,0.4H115.5z"/>
	<path class="st0" d="M146,67.8l-0.3,0.3c-1.3-1.2-2.7-1.9-4.9-1.9c-2.9,0-4.8,1.8-4.8,4.1c0,2.5,1.3,3.5,5.1,4.7
		c3.8,1.2,5.6,2.4,5.6,5.6c0,3.3-2.4,5.5-6,5.5c-2.6,0-4.3-0.9-5.8-2.3l0.3-0.3c1.4,1.3,3,2.2,5.5,2.2c3.3,0,5.5-2,5.5-5.1
		c0-3-1.6-4.1-5.3-5.3c-4-1.3-5.3-2.4-5.3-5c0-2.5,2.1-4.5,5.3-4.5C143.3,65.9,144.7,66.7,146,67.8z"/>
	<path class="st0" d="M168.8,67.8l-0.3,0.3c-1.3-1.2-2.7-1.9-4.9-1.9c-2.9,0-4.8,1.8-4.8,4.1c0,2.5,1.3,3.5,5.1,4.7
		c3.8,1.2,5.6,2.4,5.6,5.6c0,3.3-2.4,5.5-6,5.5c-2.6,0-4.3-0.9-5.8-2.3l0.3-0.3c1.4,1.3,3,2.2,5.5,2.2c3.3,0,5.5-2,5.5-5.1
		c0-3-1.6-4.1-5.3-5.3c-4-1.3-5.3-2.4-5.3-5c0-2.5,2.1-4.5,5.3-4.5C166,65.9,167.4,66.7,168.8,67.8z"/>
</g>
<path class="st1" d="M183.5-332.6c-0.1-0.1-0.2-0.1-0.3,0l-23.6,17.4l-1.1-35.6c0-0.1-0.1-0.2-0.2-0.2c-0.1,0-0.2,0.1-0.3,0.2
	l-14,48.7l-39,36l-20.8-5c0,0,0,0-0.1,0c0,0,0,0-0.1,0l-20.8,5l-39-36l-14-48.7c0-0.1-0.1-0.2-0.3-0.2c-0.1,0-0.2,0.1-0.2,0.2
	l-1.1,35.5l-23.6-17.4c-0.1-0.1-0.2-0.1-0.3,0c-0.1,0.1-0.1,0.2,0,0.3l17.7,25.6L0.8-234c0,0,0,0.1,0,0.1l8,21.4l-6.2,25.4
	c0,0,0,0.1,0,0.1c0,0,0,0,0,0l6.2,18.7l-11.5,29.7c0,0.1,0,0.2,0,0.2c0,0.1,0.1,0.1,0.2,0.1c0,0,0,0,0,0l5-0.5l7.7,42.3
	c0,0.1,0.1,0.2,0.2,0.2c0,0,0,0,0.1,0c0.1,0,0.1,0,0.2-0.1l4-4l28.3,38.8c0,0.1,0.1,0.1,0.2,0.1c0,0,0,0,0,0c0.1,0,0.2,0,0.2-0.1
	l3.8-6.2l36.4,42.8l0,0.5c0,0.1,0.1,0.2,0.2,0.2c0,0,0.1,0,0.1,0c0.1,0,0.1,0,0.2-0.1l0.1-0.1l0.1,0.1c0,0.1,0.1,0.1,0.2,0.1
	c0,0,0.1,0,0.1,0c0.1,0,0.2-0.1,0.2-0.2l0-0.5l36.4-42.8l3.8,6.2c0,0.1,0.1,0.1,0.2,0.1c0,0,0,0,0,0c0.1,0,0.2,0,0.2-0.1l28.3-38.8
	l4,4c0,0,0.1,0.1,0.2,0.1c0,0,0,0,0.1,0c0.1,0,0.2-0.1,0.2-0.2l7.7-42.3l5,0.5c0,0,0,0,0,0c0.1,0,0.2,0,0.2-0.1
	c0.1-0.1,0.1-0.2,0-0.2l-11.5-29.7l6.2-18.7c0,0,0,0,0,0c0,0,0-0.1,0-0.1l-6.2-25.4l8-21.4c0,0,0-0.1,0-0.1l-1.7-72.7l17.7-25.6
	C183.6-332.4,183.6-332.6,183.5-332.6z M159.2-168.6l-20.8-3.7c-0.1,0-0.1,0-0.2,0L107-155.2l-4.1-23.4l18.3-4.9c0,0,0.1,0,0.1-0.1
	l9.1-9.7l34.8,6.4L159.2-168.6z M30-172.3C30-172.3,30-172.3,30-172.3l-20.8,3.7l-6.1-18.3l34.8-6.4l9.1,9.7c0,0,0.1,0.1,0.1,0.1
	l18.3,4.9l-4.1,23.4l-31.2-17.1C30.1-172.3,30.1-172.3,30-172.3z M111.8-253.6l9.1,16.1l-10,43.2L100-218.6l5.2-46.5L111.8-253.6z
	 M99.6-218.4l11.1,24.9l-8.2,14.4l-18.1-8.1v-40.6l9.6,6L99.6-218.4z M103.9-149.1l-6.5,14l-11-3.1l-1.9-0.5v-47.9l17.9,8l4.2,23.8
	L103.9-149.1z M66-178.6l11.5-5.1l6.4-2.9v47.9l-4.6,1.3l-8.4,2.4l-6.6-14l-2.7-5.7l1.5-8.5L66-178.6z M61.6-153.9l9,19.2v8.5
	l-14,0.5l1.1-5.9L61.6-153.9z M71.1-126.1v-8.4l12.8-3.6v9.3l-7.3-4l2.4,8.2l4.9,4v5.2l-6.2-5.1L71.1-126.1z M83.9-121.4l-4.4-3.6
	l-2-6.8l6.5,3.6L83.9-121.4z M84.4-115.5v-5.2l4.9-4l2.4-8.2l-7.3,4v-9.3l4.7,1.3l8.1,2.3v8.4l-6.5,5.4L84.4-115.5z M84.4-121.4
	l0-6.9l6.5-3.6l-2,6.8L84.4-121.4z M111.8-125.8l-14-0.5v-8.5l9-19.2l2,11.3L111.8-125.8z M83.9-227.8v40.6l-18.1,8.1l-8.2-14.4
	l11.1-24.9l5.5-3.4L83.9-227.8z M57.3-193.3l8,14.1L47.4-184l-8.8-9.3H57.3z M59.4-119.4l-2.8-5.9l14.1-0.5l4.5,3.7l8.6,7.1v1.4
	c-1.1,0.2-7.1,0.1-10.8-0.1l-3.3,1.5l0.2,0.5l3.2-1.5c1.7,0.1,9,0.3,10.8,0.1V-97l-7.3-5.5l-14.4-10.9L59.4-119.4z M84.4-97V-113
	c1.8,0.3,9.1,0,10.8-0.1l3.2,1.5l0.2-0.5l-3.2-1.5l-0.1,0c-3.7,0.1-9.7,0.3-10.8,0.1v-1.4l8.7-7.1l4.5-3.7l14.1,0.5l-4.2,8.9l-1.4,3
	L86.6-98.6L84.4-97z M111.1-193.3h18.7L121-184l-17.9,4.8L111.1-193.3z M158.9-212.5l-28.6,18.7h-19l10-43.3l10.9,7.1L158.9-212.5z
	 M152-308.9l-4.3,9.8l-26.7,61l-15.7-27.8L152-308.9z M63.1-265.1l5.2,46.5l-10.9,24.3l-10-43.2l6.5-11.5L63.1-265.1z M47.1-237.1
	l2.3,10.1l7.7,33.2h-19l-6-3.9L9.5-212.5l9.6-6.2L47.1-237.1z M9.2-212.1l28.2,18.5l-34.3,6.3L9.2-212.1z M27.4-141.1l33.8-13.3
	L56-125.6c0,0,0,0,0,0c0,0,0,0.1,0,0.1l5.5,11.7l-48.8-14.5L27.4-141.1z M106.8-113.7l5.5-11.7c0,0,0-0.1,0-0.1c0,0,0,0,0,0
	l-5.2-28.8l33.8,13.3l14.6,12.9L106.8-113.7z M131-193.6l28.2-18.5l6.1,24.8L131-193.6z M144.7-302.8l13.3-46.3l1,34.3l-6.5,4.8
	c0,0,0,0,0,0L144.7-302.8z M99.6-219l-15.1-9.4v-42.2l20.4,4.9L99.6-219z M83.9-228.4L68.8-219l-5.3-46.7l20.4-4.9V-228.4z
	 M50.7-244.1l-3.4,6.1l-28.2-64.5l-2.7-6.3l5.8,5.3l1.8,1.7l0,0l39,36L50.7-244.1z M9.3-314.9l1-34.3l13.3,46.3l-7.8-7.2
	c0,0,0,0,0,0L9.3-314.9z M8.9-314.5C8.9-314.5,8.9-314.5,8.9-314.5l6.5,4.8l2.5,5.7l2,4.5l-17-7.5l-16.8-24.4L8.9-314.5z M3-306.4
	l17.2,7.6L47-237.6l-16.6,10.8L9.1-212.9l-7.9-21.2L3-306.4z M9.2-168l20.8-3.7l31,17l-33.7,13.3l-5.6,0.5l-23.8,2.2L9.2-168z
	 M10.7-97l-7.6-41.7l13.1-1.2l10.4-1l-14.4,12.7c-0.1,0.1-0.1,0.2-0.1,0.2c0,0.1,0.1,0.2,0.2,0.2l22.5,6.7l-20.1,20.2l0,0L10.7-97z
	 M43.3-62.2l-28.2-38.5l20.1-20.2l26.7,7.9l8.6,6.5L43.3-62.2z M47.6-68.3l23.3-37.9l13,9.8l-0.2,70.6L47.6-68.3z M84.7-25.8
	l-0.2-70.6l13-9.8l23.3,37.9L84.7-25.8z M125.1-62.2l-27.3-44.3l8.6-6.5l26.7-7.9l20.1,20.2l0,0L125.1-62.2z M165.3-138.8L157.7-97
	l-3.9-3.9l0,0l-20.1-20.2l22.5-6.7c0.1,0,0.2-0.1,0.2-0.2c0-0.1,0-0.2-0.1-0.2l-14.4-12.7l13.7,1.3L165.3-138.8z M149.3-140.8
	l-8.2-0.8l-33.7-13.3l31-17l20.8,3.7l11.3,29.2L149.3-140.8z M159.2-212.9l-37.8-24.7l26.8-61.2l17.2-7.6l1.7,72.3L159.2-212.9z
	 M165.4-307l-3.2,1.4l-13.8,6.1l4.5-10.2l29.3-21.7L165.4-307z"/>
<linearGradient id="SVGID_1_" gradientUnits="userSpaceOnUse" x1="38.6025" y1="-186.215" x2="65.2602" y2="-186.215">
	<stop  offset="0" style="stop-color:#212BB2"/>
	<stop  offset="0.4479" style="stop-color:#105ECA"/>
	<stop  offset="0.8066" style="stop-color:#0481DB"/>
	<stop  offset="1" style="stop-color:#008EE1"/>
</linearGradient>
<polygon class="st2" points="38.6,-193.3 47.4,-184 65.3,-179.2 57.3,-193.3 "/>
<linearGradient id="SVGID_2_" gradientUnits="userSpaceOnUse" x1="103.1074" y1="-186.2158" x2="129.8117" y2="-186.2158">
	<stop  offset="0" style="stop-color:#008EE1"/>
	<stop  offset="1" style="stop-color:#212BB2"/>
</linearGradient>
<polygon class="st3" points="129.8,-193.3 121,-184 103.1,-179.2 111.1,-193.3 "/>
</svg>
